<svg width="181" height="45" viewBox="0 0 181 45" fill="none" xmlns="http://www.w3.org/2000/svg">
<path d="M2.772 37V10.18H14.076C15.756 10.18 17.208 10.48 18.432 11.08C19.656 11.656 20.592 12.496 21.24 13.6C21.888 14.68 22.212 15.964 22.212 17.452C22.212 18.748 21.876 19.936 21.204 21.016C20.556 22.072 19.536 22.912 18.144 23.536V21.736C19.368 22.216 20.364 22.828 21.132 23.572C21.9 24.292 22.452 25.108 22.788 26.02C23.148 26.932 23.328 27.892 23.328 28.9C23.328 31.42 22.5 33.4 20.844 34.84C19.212 36.28 16.968 37 14.112 37H2.772ZM7.02 33.22H14.436C15.852 33.22 16.98 32.836 17.82 32.068C18.66 31.276 19.08 30.232 19.08 28.936C19.08 27.616 18.66 26.572 17.82 25.804C16.98 25.012 15.852 24.616 14.436 24.616H7.02V33.22ZM7.02 20.872H14.184C15.336 20.872 16.26 20.548 16.956 19.9C17.652 19.228 18 18.352 18 17.272C18 16.192 17.652 15.352 16.956 14.752C16.26 14.152 15.336 13.852 14.184 13.852H7.02V20.872ZM27.3018 37V17.524H31.3698V37H27.3018ZM27.3018 14.86V10.18H31.3698V14.86H27.3018ZM46.53 37.432C45.018 37.432 43.638 37.12 42.39 36.496C41.166 35.872 40.218 34.972 39.546 33.796L40.014 33.04V37H36.126V9.748H40.194V21.556L39.546 20.62C40.266 19.516 41.226 18.652 42.426 18.028C43.626 17.404 44.994 17.092 46.53 17.092C48.378 17.092 50.034 17.536 51.498 18.424C52.986 19.312 54.15 20.524 54.99 22.06C55.854 23.596 56.286 25.324 56.286 27.244C56.286 29.164 55.854 30.892 54.99 32.428C54.15 33.964 52.998 35.188 51.534 36.1C50.07 36.988 48.402 37.432 46.53 37.432ZM46.134 33.652C47.286 33.652 48.306 33.376 49.194 32.824C50.082 32.272 50.778 31.516 51.282 30.556C51.81 29.572 52.074 28.468 52.074 27.244C52.074 26.02 51.81 24.928 51.282 23.968C50.778 23.008 50.082 22.252 49.194 21.7C48.306 21.148 47.286 20.872 46.134 20.872C45.006 20.872 43.986 21.148 43.074 21.7C42.186 22.252 41.478 23.008 40.95 23.968C40.446 24.928 40.194 26.02 40.194 27.244C40.194 28.468 40.446 29.572 40.95 30.556C41.478 31.516 42.186 32.272 43.074 32.824C43.986 33.376 45.006 33.652 46.134 33.652ZM60.2432 37V9.748H64.3112V37H60.2432ZM78.2114 37.432C76.2674 37.432 74.5394 36.988 73.0274 36.1C71.5394 35.188 70.3754 33.964 69.5354 32.428C68.6954 30.868 68.2754 29.128 68.2754 27.208C68.2754 25.24 68.6954 23.5 69.5354 21.988C70.3994 20.476 71.5514 19.288 72.9914 18.424C74.4314 17.536 76.0634 17.092 77.8874 17.092C79.3514 17.092 80.6594 17.344 81.8114 17.848C82.9634 18.352 83.9354 19.048 84.7274 19.936C85.5194 20.8 86.1194 21.796 86.5274 22.924C86.9594 24.052 87.1754 25.252 87.1754 26.524C87.1754 26.836 87.1634 27.16 87.1394 27.496C87.1154 27.832 87.0674 28.144 86.9954 28.432H71.4794V25.192H84.6914L82.7474 26.668C82.9874 25.492 82.9034 24.448 82.4954 23.536C82.1114 22.6 81.5114 21.868 80.6954 21.34C79.9034 20.788 78.9674 20.512 77.8874 20.512C76.8074 20.512 75.8474 20.788 75.0074 21.34C74.1674 21.868 73.5194 22.636 73.0634 23.644C72.6074 24.628 72.4274 25.828 72.5234 27.244C72.4034 28.564 72.5834 29.716 73.0634 30.7C73.5674 31.684 74.2634 32.452 75.1514 33.004C76.0634 33.556 77.0954 33.832 78.2474 33.832C79.4234 33.832 80.4194 33.568 81.2354 33.04C82.0754 32.512 82.7354 31.828 83.2154 30.988L86.5274 32.608C86.1434 33.52 85.5434 34.348 84.7274 35.092C83.9354 35.812 82.9754 36.388 81.8474 36.82C80.7434 37.228 79.5314 37.432 78.2114 37.432ZM98.6695 37L89.1655 10.18H93.7375L101.514 33.076H100.614L108.354 10.18H112.926L103.422 37H98.6695ZM115.685 37V17.524H119.753V37H115.685ZM115.685 14.86V10.18H119.753V14.86H115.685ZM131.709 37.432C129.717 37.432 127.965 36.94 126.453 35.956C124.965 34.972 123.921 33.652 123.321 31.996L126.453 30.52C126.981 31.624 127.701 32.5 128.613 33.148C129.549 33.796 130.581 34.12 131.709 34.12C132.669 34.12 133.449 33.904 134.049 33.472C134.649 33.04 134.949 32.452 134.949 31.708C134.949 31.228 134.817 30.844 134.553 30.556C134.289 30.244 133.953 29.992 133.545 29.8C133.161 29.608 132.765 29.464 132.357 29.368L129.297 28.504C127.617 28.024 126.357 27.304 125.517 26.344C124.701 25.36 124.293 24.22 124.293 22.924C124.293 21.748 124.593 20.728 125.193 19.864C125.793 18.976 126.621 18.292 127.677 17.812C128.733 17.332 129.921 17.092 131.241 17.092C133.017 17.092 134.601 17.536 135.993 18.424C137.385 19.288 138.369 20.5 138.945 22.06L135.813 23.536C135.429 22.6 134.817 21.856 133.977 21.304C133.161 20.752 132.237 20.476 131.205 20.476C130.317 20.476 129.609 20.692 129.081 21.124C128.553 21.532 128.289 22.072 128.289 22.744C128.289 23.2 128.409 23.584 128.649 23.896C128.889 24.184 129.201 24.424 129.585 24.616C129.969 24.784 130.365 24.928 130.773 25.048L133.941 25.984C135.549 26.44 136.785 27.16 137.649 28.144C138.513 29.104 138.945 30.256 138.945 31.6C138.945 32.752 138.633 33.772 138.009 34.66C137.409 35.524 136.569 36.208 135.489 36.712C134.409 37.192 133.149 37.432 131.709 37.432Z" fill="#2D2D2E"/>
<path d="M149 22.4991L149 19.3565L180 11.5M149 22.4991L149 25.6418L180 33.5M149 22.4991L180 22.4991" stroke="#2D2D2E" stroke-width="4"/>
</svg>
