<svg width="18" height="18" viewBox="0 0 18 18" fill="none" xmlns="http://www.w3.org/2000/svg">
<path fill-rule="evenodd" clip-rule="evenodd" d="M3 2.00122C2.73478 2.00122 2.48043 2.10658 2.29289 2.29411C2.10536 2.48165 2 2.736 2 3.00122V11.0012C2 11.2664 2.10536 11.5208 2.29289 11.7083C2.48043 11.8959 2.73478 12.0012 3 12.0012H4V7.00122C4 6.20557 4.31607 5.44251 4.87868 4.8799C5.44129 4.31729 6.20435 4.00122 7 4.00122H12V3.00122C12 2.736 11.8946 2.48165 11.7071 2.29411C11.5196 2.10658 11.2652 2.00122 11 2.00122H3ZM14 4.00122V3.00122C14 2.20557 13.6839 1.44251 13.1213 0.8799C12.5587 0.317291 11.7956 0.0012207 11 0.0012207H3C2.20435 0.0012207 1.44129 0.317291 0.87868 0.8799C0.31607 1.44251 0 2.20557 0 3.00122V11.0012C0 11.7969 0.31607 12.5599 0.87868 13.1225C1.44129 13.6851 2.20435 14.0012 3 14.0012H4V15.0012C4 15.7969 4.31607 16.5599 4.87868 17.1225C5.44129 17.6852 6.20435 18.0012 7 18.0012H15C15.7957 18.0012 16.5587 17.6852 17.1213 17.1225C17.6839 16.5599 18 15.7969 18 15.0012V7.00122C18 6.20557 17.6839 5.44251 17.1213 4.8799C16.5587 4.31729 15.7957 4.00122 15 4.00122H14ZM7 6.00122C6.73478 6.00122 6.48043 6.10658 6.29289 6.29411C6.10536 6.48165 6 6.736 6 7.00122V15.0012C6 15.2664 6.10536 15.5208 6.29289 15.7083C6.48043 15.8959 6.73478 16.0012 7 16.0012H15C15.2652 16.0012 15.5196 15.8959 15.7071 15.7083C15.8946 15.5208 16 15.2664 16 15.0012V7.00122C16 6.736 15.8946 6.48165 15.7071 6.29411C15.5196 6.10658 15.2652 6.00122 15 6.00122H7Z" fill="#2D2D2E"/>
</svg>
