<svg width="1282" height="400" viewBox="0 0 1282 400" fill="none" xmlns="http://www.w3.org/2000/svg">
<g clip-path="url(#clip0_3065_1341)">
<mask id="mask0_3065_1341" style="mask-type:alpha" maskUnits="userSpaceOnUse" x="0" y="0" width="1282" height="400">
<rect width="1282" height="400" rx="10" fill="#D9D9D9"/>
</mask>
<g mask="url(#mask0_3065_1341)">
<rect width="1282" height="400" rx="10" fill="#DFEAF7"/>
<path fill-rule="evenodd" clip-rule="evenodd" d="M403.652 -147.309C483.691 -146.242 571.816 -166.462 632.226 -113.913C694.957 -59.3447 705.616 31.6345 704.974 114.805C704.337 197.2 685.905 280.726 628.719 340.014C570.641 400.227 487.032 433.686 403.652 427.204C325.325 421.115 266.272 363.445 211.034 307.544C156.243 252.095 102.604 192.407 94.9596 114.805C86.5931 29.878 103.879 -64.8724 168.907 -120.088C231.345 -173.105 321.771 -148.4 403.652 -147.309Z" fill="#D4E5F8"/>
<path fill-rule="evenodd" clip-rule="evenodd" d="M667.044 -145.738C766.61 -144.993 871.993 -215.862 954.051 -159.492C1041.89 -99.1515 1080.13 21.9867 1064.64 127.391C1050.44 223.999 949.247 271.384 880.526 340.781C811.151 410.839 765.59 525.137 667.044 528.896C567.632 532.689 503.254 431.556 436.62 357.716C374.996 289.429 315.387 218.735 304.718 127.391C292.669 24.2276 292.745 -101.283 375.706 -163.822C456.465 -224.699 565.898 -146.495 667.044 -145.738Z" fill="#C6E1FF"/>
<path fill-rule="evenodd" clip-rule="evenodd" d="M1324.31 62.5267C1325.61 165.981 1190.99 204.989 1119.28 279.57C1060.12 341.108 1029.59 435.075 946.655 455.322C857.189 477.166 766.368 436.548 690.57 384.241C608.559 327.646 508.115 256.449 514.361 157.001C520.481 59.5735 643.792 25.8632 717.128 -38.5683C768.922 -84.0729 808.572 -140.991 874.909 -159.769C954.648 -182.341 1039.62 -187.624 1113.9 -150.881C1206.98 -104.836 1323.02 -41.3168 1324.31 62.5267Z" fill="#BCDBFC"/>
</g>
</g>
<defs>
<clipPath id="clip0_3065_1341">
<rect width="1282" height="400" fill="white"/>
</clipPath>
</defs>
</svg>
