<svg width="1282" height="400" viewBox="0 0 1282 400" fill="none" xmlns="http://www.w3.org/2000/svg">
<mask id="mask0_2009_1462" style="mask-type:alpha" maskUnits="userSpaceOnUse" x="0" y="0" width="1282" height="400">
<rect width="1282" height="400" fill="#D9D9D9"/>
</mask>
<g mask="url(#mask0_2009_1462)">
<rect width="1282" height="400" fill="#DFEAF7"/>
<path d="M953.49 353.074C943.876 372.908 927.604 390.658 906.36 405.854C801.338 481.225 575.157 495.883 439.476 405.854C417.088 391.06 397.183 373.378 380.712 352.671C336.741 297.469 310.72 213.022 316.904 133.28C319.458 100.537 323.29 59.1205 353.344 23.1467C413.989 -49.3318 525.872 -32.9282 531.518 -31.9878C609.849 -19.2817 611.192 27.4497 724.485 99.2585C850.484 179.2 922.225 167.904 953.155 239.31C967.34 271.986 970.838 317.168 953.49 353.074Z" fill="#DFEAF7"/>
<path d="M549.816 378.671L576.098 260.722C582.688 231.142 602.5 206.229 629.839 193.149L707.394 156.042L786.965 189.138C818.956 202.446 842.331 230.672 849.441 264.583L873.357 378.671H549.816Z" fill="#3D71F2"/>
<path d="M658.246 340.955C658.246 340.955 678.988 313.762 688.966 315.497C698.94 317.231 717.374 349.757 717.374 349.757H799.63L801.942 328.94C801.942 328.94 854.565 338.483 873.355 378.671H667.493L658.246 340.955Z" fill="#FFB0B3"/>
<path d="M801.942 331.462C800.663 331.462 799.566 330.497 799.434 329.197L792.292 258.98C792.153 257.595 793.158 256.355 794.543 256.216C795.943 256.106 797.169 257.082 797.308 258.467L804.45 328.684C804.589 330.069 803.584 331.309 802.198 331.448C802.109 331.455 802.024 331.462 801.942 331.462Z" fill="#002D53"/>
<path d="M670.531 144.184V198.83C670.531 198.83 666.627 232.66 688.314 229.621C710 226.586 733.004 166.689 733.004 166.689L729.424 113.535L670.531 144.184Z" fill="#FFB0B3"/>
<path d="M732.217 154.66L670.561 194.192V144.17L729.392 113.51L732.217 154.66Z" fill="#FF7A72"/>
<path d="M732.721 105.822C748.891 64.0494 738.325 21.0221 709.122 9.71791C679.919 -1.5863 643.137 23.1133 626.967 64.8859C610.798 106.659 621.363 149.686 650.566 160.99C679.769 172.294 716.551 147.595 732.721 105.822Z" fill="#FFB3AE"/>
<path d="M739.897 75.4064C739.897 75.4064 709.708 58.8888 693.23 20.4357C693.23 20.4357 616.032 80.8635 597.815 43.8567C579.598 6.84981 624.706 -22.356 629.91 2.79968C629.91 2.79968 671.494 -64.5671 739.897 -19.7521C808.301 25.0629 739.897 75.4064 739.897 75.4064Z" fill="#002D53"/>
<path d="M751.085 93.5554C746.689 105.806 737.321 113.656 730.165 111.085C723.008 108.513 720.764 96.5013 725.16 84.2512C729.555 72.001 738.924 64.1501 746.084 66.7184C753.244 69.2867 755.481 81.3053 751.085 93.5554Z" fill="#FFB3AE"/>
<path d="M483.181 278.625H409.445V378.693H483.181V278.625Z" fill="#6190E5"/>
<path d="M381.46 328.997C381.46 337.71 388.566 344.767 397.279 344.767C402.195 344.767 406.576 342.526 409.447 339.025V360.244C405.7 361.755 401.564 362.531 397.279 362.531C378.735 362.531 363.695 347.542 363.695 328.997C363.695 310.453 378.735 295.414 397.279 295.414C401.561 295.414 405.7 296.194 409.447 297.701V318.92C406.576 315.415 402.195 313.178 397.279 313.178C388.566 313.182 381.46 320.238 381.46 328.997Z" fill="#6190E5"/>
<path d="M430.117 203.828C439.186 189.978 452.383 178.783 459.037 163.622C468.185 142.784 463.372 118.244 470.354 96.5832C480.485 65.1546 512.515 46.6387 531.291 19.474C551.731 -10.0987 554.915 -50.7496 539.328 -83.1436C532.214 -97.9299 521.033 -111.309 506.097 -118.113C488.389 -126.181 466.81 -123.912 450.146 -113.863C433.483 -103.815 421.703 -86.6273 416.459 -67.8906C403.532 -21.6899 428.531 28.1192 418.607 75.0573C412.708 102.967 394.923 127.242 388.921 155.13C383.702 179.388 388.614 205.338 401.146 226.629C404.815 232.866 415.038 252.568 420.495 239.015C422.565 233.878 421.29 227.562 422.408 222.151C423.747 215.647 426.483 209.371 430.117 203.828Z" fill="#F1F3F6"/>
<path d="M945.186 378.671H368.539V405.85H945.186V378.671Z" fill="#D18C7E"/>
<path d="M678.701 365.609C680.465 372.79 675.855 378.667 668.457 378.667H497.585C490.19 378.667 482.696 372.79 480.936 365.609L449.757 238.491C447.994 231.306 452.603 225.432 460.002 225.432H630.873C638.268 225.432 645.763 231.31 647.522 238.491L678.701 365.609Z" fill="white"/>
<path d="M581.033 303.849C582.939 314.239 576.057 322.667 565.662 322.667C555.268 322.667 545.301 314.243 543.399 303.849C541.493 293.458 548.375 285.033 558.77 285.033C569.157 285.03 579.127 293.454 581.033 303.849Z" fill="#DFEAF7"/>
</g>
</svg>
