<svg width="329" height="109" viewBox="0 0 329 109" fill="none" xmlns="http://www.w3.org/2000/svg">
<mask id="mask0_2009_1843" style="mask-type:alpha" maskUnits="userSpaceOnUse" x="0" y="0" width="329" height="109">
<rect x="0.5" width="328" height="109" rx="10" fill="#D9D9D9"/>
</mask>
<g mask="url(#mask0_2009_1843)">
<rect x="0.5" width="328" height="109" rx="10" fill="#DFEAF7"/>
<path d="M247.85 99.4696C245.296 104.739 240.974 109.454 235.33 113.491C207.431 133.513 147.346 137.407 111.302 113.491C105.354 109.561 100.066 104.863 95.6908 99.3627C84.0099 84.6982 77.0973 62.2646 78.74 41.0812C79.4185 32.3829 80.4367 21.3805 88.4205 11.824C104.531 -7.43002 134.253 -3.07239 135.753 -2.82257C156.561 0.552818 156.918 12.9671 187.015 32.0432C220.487 53.2797 239.545 50.279 247.761 69.2482C251.529 77.9285 252.459 89.9311 247.85 99.4696Z" fill="#DFEAF7"/>
<path d="M140.613 106.27L147.595 74.9368C149.346 67.0789 154.609 60.4606 161.872 56.9859L182.474 47.1284L203.612 55.9203C212.111 59.4556 218.32 66.954 220.209 75.9626L226.562 106.27H140.613Z" fill="#3D71F2"/>
<path d="M169.418 96.2505C169.418 96.2505 174.928 89.0266 177.579 89.4875C180.228 89.9483 185.125 98.5888 185.125 98.5888H206.977L207.591 93.0587C207.591 93.0587 221.57 95.5938 226.562 106.27H171.875L169.418 96.2505Z" fill="#FFB0B3"/>
<path d="M207.59 93.7293C207.251 93.7293 206.959 93.4729 206.924 93.1275L205.027 74.4744C204.99 74.1063 205.257 73.777 205.625 73.7401C205.997 73.7107 206.322 73.97 206.359 74.3381L208.257 92.9912C208.293 93.3593 208.027 93.6886 207.658 93.7255C207.635 93.7274 207.612 93.7293 207.59 93.7293Z" fill="#002D53"/>
<path d="M172.68 43.9775V58.4944C172.68 58.4944 171.643 67.4813 177.404 66.6741C183.165 65.8679 189.276 49.9561 189.276 49.9561L188.325 35.8357L172.68 43.9775Z" fill="#FFB0B3"/>
<path d="M189.069 46.7618L172.689 57.2636V43.975L188.318 35.8303L189.069 46.7618Z" fill="#FF7A72"/>
<path d="M189.201 33.7878C193.497 22.6908 190.69 11.2605 182.932 8.25757C175.175 5.25459 165.403 11.8161 161.108 22.913C156.812 34.01 159.619 45.4403 167.377 48.4432C175.135 51.4462 184.906 44.8847 189.201 33.7878Z" fill="#FFB3AE"/>
<path d="M191.108 25.7067C191.108 25.7067 183.088 21.3188 178.711 11.1037C178.711 11.1037 158.203 27.1564 153.364 17.3255C148.524 7.49457 160.507 -0.263997 161.89 6.41865C161.89 6.41865 172.936 -11.4774 191.108 0.427734C209.279 12.3329 191.108 25.7067 191.108 25.7067Z" fill="#002D53"/>
<path d="M194.08 30.5286C192.913 33.7829 190.424 35.8685 188.523 35.1853C186.622 34.5021 186.026 31.3112 187.193 28.0569C188.361 24.8027 190.85 22.717 192.752 23.3993C194.654 24.0816 195.248 27.2743 194.08 30.5286Z" fill="#FFB3AE"/>
<path d="M122.912 79.6914H103.324V106.274H122.912V79.6914Z" fill="#6190E5"/>
<path d="M95.889 93.0729C95.889 95.3875 97.7769 97.2621 100.091 97.2621C101.397 97.2621 102.561 96.6669 103.324 95.7367V101.374C102.328 101.775 101.23 101.981 100.091 101.981C95.1651 101.981 91.1699 97.9993 91.1699 93.0729C91.1699 88.1466 95.1651 84.1514 100.091 84.1514C101.229 84.1514 102.328 84.3586 103.324 84.7589V90.3959C102.561 89.4647 101.397 88.8705 100.091 88.8705C97.7769 88.8714 95.889 90.746 95.889 93.0729Z" fill="#6190E5"/>
<path d="M108.816 59.8223C111.225 56.1432 114.731 53.169 116.498 49.1416C118.928 43.6059 117.65 37.0869 119.505 31.3326C122.196 22.9835 130.705 18.0648 135.693 10.8484C141.123 2.99239 141.969 -7.80658 137.828 -16.4121C135.938 -20.3401 132.968 -23.8943 129 -25.7017C124.296 -27.8451 118.563 -27.2423 114.136 -24.5728C109.71 -21.9034 106.58 -17.3375 105.187 -12.3601C101.753 -0.0868149 108.394 13.1451 105.758 25.6142C104.191 33.0283 99.4663 39.4772 97.8718 46.8857C96.4855 53.3299 97.7904 60.2235 101.119 65.8795C102.094 67.5364 104.81 72.7703 106.26 69.1697C106.809 67.8052 106.471 66.1274 106.768 64.69C107.124 62.9621 107.85 61.2947 108.816 59.8223Z" fill="#F1F3F6"/>
<path d="M245.644 106.271H92.457V113.491H245.644V106.271Z" fill="#D18C7E"/>
<path d="M174.851 102.799C175.319 104.707 174.095 106.268 172.129 106.268H126.737C124.773 106.268 122.782 104.707 122.314 102.799L114.032 69.0301C113.563 67.1215 114.788 65.561 116.753 65.561H162.145C164.11 65.561 166.101 67.1224 166.568 69.0301L174.851 102.799Z" fill="white"/>
<path d="M148.906 86.3928C149.412 89.1531 147.584 91.392 144.823 91.392C142.061 91.392 139.414 89.154 138.908 86.3928C138.402 83.6325 140.23 81.3945 142.992 81.3945C145.751 81.3936 148.4 83.6315 148.906 86.3928Z" fill="#DFEAF7"/>
</g>
</svg>
