<svg width="18" height="18" viewBox="0 0 18 18" fill="none" xmlns="http://www.w3.org/2000/svg">
<path fill-rule="evenodd" clip-rule="evenodd" d="M9 7.5C8.60217 7.5 8.22064 7.65804 7.93934 7.93934C7.65804 8.22064 7.5 8.60217 7.5 9C7.5 9.39783 7.65804 9.77936 7.93934 10.0607C8.22064 10.342 8.60217 10.5 9 10.5C9.39783 10.5 9.77936 10.342 10.0607 10.0607C10.342 9.77936 10.5 9.39783 10.5 9C10.5 8.60217 10.342 8.22064 10.0607 7.93934C9.77936 7.65804 9.39783 7.5 9 7.5ZM6.87868 6.87868C7.44129 6.31607 8.20435 6 9 6C9.79565 6 10.5587 6.31607 11.1213 6.87868C11.6839 7.44129 12 8.20435 12 9C12 9.79565 11.6839 10.5587 11.1213 11.1213C10.5587 11.6839 9.79565 12 9 12C8.20435 12 7.44129 11.6839 6.87868 11.1213C6.31607 10.5587 6 9.79565 6 9C6 8.20435 6.31607 7.44129 6.87868 6.87868Z" fill="#CACACA"/>
<path fill-rule="evenodd" clip-rule="evenodd" d="M2.63425 9C3.56088 11.6223 6.06267 13.5 9.00025 13.5C11.9385 13.5 14.4396 11.6223 15.3662 9C14.4396 6.37765 11.9385 4.5 9.00025 4.5C6.06267 4.5 3.56088 6.37769 2.63425 9ZM1.1282 8.7753C2.17906 5.42888 5.30558 3 9.00025 3C12.6957 3 15.8215 5.42892 16.8723 8.7753C16.9182 8.92158 16.9182 9.07842 16.8723 9.2247C15.8215 12.5711 12.6957 15 9.00025 15C5.30558 15 2.17906 12.5711 1.1282 9.2247C1.08227 9.07842 1.08227 8.92158 1.1282 8.7753Z" fill="#CACACA"/>
</svg>
