<svg width="16" height="16" viewBox="0 0 16 16" fill="none" xmlns="http://www.w3.org/2000/svg">
<path fill-rule="evenodd" clip-rule="evenodd" d="M0.634274 0.234315C0.930602 -0.0781049 1.41105 -0.0781049 1.70737 0.234315L4.01487 2.66711C5.23475 1.9667 6.60491 1.5981 8.00051 1.6C11.7391 1.60024 14.9012 4.19103 15.9651 7.76015C16.0117 7.9166 16.0116 8.08439 15.9648 8.24078C15.4712 9.88961 14.5312 11.342 13.2701 12.4249L15.3657 14.6343C15.6621 14.9467 15.6621 15.4533 15.3657 15.7657C15.0694 16.0781 14.589 16.0781 14.2926 15.7657L11.5707 12.896C11.5705 12.8958 11.5703 12.8956 11.5701 12.8954L9.07294 10.2634C9.06619 10.2563 9.05958 10.249 9.05312 10.2417L5.85335 6.86895C5.84658 6.86182 5.83996 6.85457 5.83348 6.8472L0.634274 1.36569C0.337945 1.05327 0.337945 0.546734 0.634274 0.234315ZM7.6068 6.45471L9.46579 8.41418C9.49977 8.28036 9.51741 8.14134 9.51741 8.0004C9.51741 7.576 9.3575 7.16898 9.07286 6.86889C8.78822 6.56879 8.40216 6.4002 7.99962 6.4002C7.86582 6.4002 7.73384 6.41882 7.6068 6.45471ZM10.6144 9.62566C10.8875 9.13736 11.035 8.5769 11.035 8.0004C11.035 7.15165 10.7152 6.33767 10.146 5.73751C9.57672 5.13736 8.80466 4.8002 7.99962 4.8002C7.45297 4.8002 6.92152 4.95566 6.45845 5.24337L5.14474 3.85833C6.03617 3.4249 7.00975 3.19859 7.99897 3.2L8 3.2C10.9725 3.2 13.5029 5.20253 14.4412 7.99956C14.0032 9.30175 13.2207 10.4416 12.1901 11.2864L10.6144 9.62566ZM2.4029 4.93904C2.73698 5.20578 2.80271 5.70755 2.54971 6.05977C2.12628 6.64926 1.79211 7.3038 1.55864 8.00001C2.49684 10.7973 5.02736 12.8 8 12.8C8.42986 12.8003 8.85938 12.7581 9.28176 12.6739C9.69353 12.5918 10.0905 12.8772 10.1683 13.3114C10.2462 13.7455 9.97551 14.164 9.56373 14.2461C9.04801 14.3489 8.52428 14.4004 7.99942 14.4C7.99923 14.4 7.99961 14.4 7.99942 14.4C4.26083 14.3997 1.0988 11.809 0.0349065 8.23985C-0.0116429 8.08369 -0.0116353 7.91623 0.0349283 7.76008C0.321525 6.79894 0.76296 5.89701 1.33989 5.09383C1.59289 4.7416 2.06881 4.6723 2.4029 4.93904Z" fill="#CACACA"/>
</svg>
