<svg width="20" height="18" viewBox="0 0 20 18" fill="none" xmlns="http://www.w3.org/2000/svg">
<path fill-rule="evenodd" clip-rule="evenodd" d="M3.39526 0.418669C4.06256 0.142264 4.77776 0 5.50004 0C6.22232 0 6.93752 0.142264 7.60481 0.418669C8.27211 0.695074 8.87843 1.10021 9.38915 1.61094M10 2.22183L9.38915 1.61094L10 2.22183ZM10 2.22183L10.6109 1.61093C11.6424 0.579477 13.0413 1.14441e-05 14.5 1.14441e-05C15.9587 1.14441e-05 17.3577 0.579477 18.3891 1.61093C19.4206 2.64239 20.0001 4.04134 20.0001 5.50004C20.0001 6.95874 19.4206 8.35769 18.3891 9.38915L10.7071 17.0711C10.5196 17.2587 10.2653 17.364 10 17.364C9.73482 17.364 9.48047 17.2587 9.29293 17.0711L1.61094 9.38915C1.10021 8.87843 0.695074 8.27211 0.418669 7.60481C0.142264 6.93752 0 6.22231 0 5.50004C0 4.77776 0.142264 4.06256 0.418669 3.39526C0.695072 2.72797 1.1002 2.12166 1.61093 1.61094C1.61092 1.61094 1.61093 1.61093 1.61093 1.61094M3.39526 0.418669C2.72797 0.695073 2.12165 1.10021 1.61093 1.61094L3.39526 0.418669ZM5.50004 2C5.04041 2 4.58528 2.09053 4.16064 2.26643C3.73599 2.44232 3.35016 2.70013 3.02515 3.02514C2.70014 3.35015 2.44232 3.73599 2.26643 4.16064C2.09053 4.58528 2 5.04041 2 5.50004C2 5.95967 2.09053 6.4148 2.26643 6.83944C2.44232 7.26408 2.70013 7.64992 3.02514 7.97493L10 14.9498L16.9749 7.97493C17.6313 7.31855 18.0001 6.4283 18.0001 5.50004C18.0001 4.57177 17.6313 3.68153 16.9749 3.02515C16.3185 2.36876 15.4283 2.00001 14.5 2.00001C13.5718 2.00001 12.6815 2.36876 12.0251 3.02515L10.7071 4.34315C10.5196 4.53068 10.2653 4.63604 10 4.63604C9.73482 4.63604 9.48047 4.53068 9.29293 4.34315L7.97493 3.02515C7.64993 2.70014 7.26408 2.44232 6.83944 2.26643C6.4148 2.09053 5.95967 2 5.50004 2Z" fill="#2D2D2E"/>
<path d="M9.38915 1.61094L3.39526 0.418669L1.61093 1.61094L10 2.22183L9.38915 1.61094Z" fill="#2D2D2E"/>
</svg>
