<svg width="20" height="17" viewBox="0 0 20 17" fill="none" xmlns="http://www.w3.org/2000/svg">
<path fill-rule="evenodd" clip-rule="evenodd" d="M3.89526 0.737273C4.56256 0.460867 5.27776 0.318604 6.00004 0.318604C6.72232 0.318604 7.43752 0.460868 8.10481 0.737273C8.77211 1.01368 9.37843 1.41881 9.88915 1.92954M10.5 2.54043L9.88915 1.92954L10.5 2.54043ZM10.5 2.54043L11.1109 1.92954C12.1424 0.89808 13.5413 0.318615 15 0.318615C16.4587 0.318615 17.8577 0.898081 18.8891 1.92954C19.9206 2.96099 20.5001 4.35994 20.5001 5.81864C20.5001 7.27734 19.9206 8.67629 18.8891 9.70775L11.2071 17.3897C11.0196 17.5773 10.7653 17.6826 10.5 17.6826C10.2348 17.6826 9.98047 17.5773 9.79293 17.3897L2.11094 9.70775C1.60021 9.19703 1.19507 8.59071 0.918669 7.92342C0.642264 7.25612 0.5 6.54092 0.5 5.81864C0.5 5.09637 0.642264 4.38116 0.918669 3.71387C1.19507 3.04658 1.6002 2.44026 2.11093 1.92954C2.11092 1.92954 2.11093 1.92954 2.11093 1.92954M3.89526 0.737273C3.22797 1.01368 2.62165 1.41881 2.11093 1.92954L3.89526 0.737273ZM6.00004 2.3186C5.54041 2.3186 5.08528 2.40913 4.66064 2.58503C4.23599 2.76092 3.85016 3.01874 3.52515 3.34374C3.20014 3.66875 2.94232 4.0546 2.76643 4.47924C2.59053 4.90388 2.5 5.35901 2.5 5.81864C2.5 6.27827 2.59053 6.7334 2.76643 7.15804C2.94232 7.58269 3.20013 7.96853 3.52514 8.29353L10.5 15.2684L17.4749 8.29354C18.1313 7.63715 18.5001 6.74691 18.5001 5.81864C18.5001 4.89038 18.1313 4.00013 17.4749 3.34375C16.8185 2.68737 15.9283 2.31861 15 2.31861C14.0718 2.31861 13.1815 2.68737 12.5251 3.34375L11.2071 4.66175C11.0196 4.84929 10.7653 4.95464 10.5 4.95464C10.2348 4.95464 9.98047 4.84929 9.79293 4.66175L8.47493 3.34375C8.14993 3.01874 7.76408 2.76092 7.33944 2.58503C6.9148 2.40913 6.45967 2.3186 6.00004 2.3186Z" fill="#2D2D2E"/>
<path d="M9.88915 1.92954L3.89526 0.737273L2.11093 1.92954L10.5 2.54043L9.88915 1.92954Z" fill="#2D2D2E"/>
</svg>
