<svg width="15" height="15" viewBox="0 0 15 15" fill="none" xmlns="http://www.w3.org/2000/svg">
<path fill-rule="evenodd" clip-rule="evenodd" d="M9.08333 1.95833C8.64611 1.95833 8.29167 1.60389 8.29167 1.16667C8.29167 0.729441 8.64611 0.375 9.08333 0.375H13.8333C14.2706 0.375 14.625 0.729441 14.625 1.16667V5.91667C14.625 6.35389 14.2706 6.70833 13.8333 6.70833C13.3961 6.70833 13.0417 6.35389 13.0417 5.91667V3.07792L6.47646 9.64313C6.16729 9.95229 5.66604 9.95229 5.35687 9.64313C5.04771 9.33396 5.04771 8.83271 5.35687 8.52354L11.9221 1.95833H9.08333ZM1.07062 2.65395C1.51602 2.20856 2.12011 1.95833 2.75 1.95833H5.91667C6.35389 1.95833 6.70833 2.31277 6.70833 2.75C6.70833 3.18723 6.35389 3.54167 5.91667 3.54167H2.75C2.54004 3.54167 2.33867 3.62507 2.19021 3.77354C2.04174 3.92201 1.95833 4.12337 1.95833 4.33333V12.25C1.95833 12.46 2.04174 12.6613 2.19021 12.8098C2.33867 12.9583 2.54004 13.0417 2.75 13.0417H10.6667C10.8766 13.0417 11.078 12.9583 11.2265 12.8098C11.3749 12.6613 11.4583 12.46 11.4583 12.25V9.08333C11.4583 8.64611 11.8128 8.29167 12.25 8.29167C12.6872 8.29167 13.0417 8.64611 13.0417 9.08333V12.25C13.0417 12.8799 12.7914 13.484 12.346 13.9294C11.9006 14.3748 11.2966 14.625 10.6667 14.625H2.75C2.12011 14.625 1.51602 14.3748 1.07062 13.9294C0.625222 13.484 0.375 12.8799 0.375 12.25V4.33333C0.375 3.70344 0.625222 3.09935 1.07062 2.65395Z" fill="#01AB6C"/>
</svg>
