<svg width="27" height="27" viewBox="0 0 27 27" fill="none" xmlns="http://www.w3.org/2000/svg">
<path d="M10.3949 18.9711V11.6776H7.97284V18.9711H10.3952H10.3949ZM9.18439 10.682C10.0288 10.682 10.5546 10.1219 10.5546 9.42202C10.5388 8.70617 10.0288 8.16174 9.20045 8.16174C8.37149 8.16174 7.83008 8.70617 7.83008 9.42196C7.83008 10.1219 8.35562 10.6819 9.16852 10.6819H9.1842L9.18439 10.682ZM11.7356 18.9711H14.1575V14.8985C14.1575 14.6808 14.1733 14.4626 14.2373 14.3071C14.4123 13.8714 14.8108 13.4204 15.4801 13.4204C16.3563 13.4204 16.707 14.0891 16.707 15.0697V18.9711H19.1288V14.7892C19.1288 12.5491 17.9341 11.5066 16.3406 11.5066C15.0341 11.5066 14.4603 12.2375 14.1416 12.7353H14.1577V11.6779H11.7357C11.7673 12.3621 11.7355 18.9713 11.7355 18.9713L11.7356 18.9711Z" fill="black"/>
</svg>
