<svg width="322" height="52" viewBox="0 0 322 52" fill="none" xmlns="http://www.w3.org/2000/svg">
<path fill-rule="evenodd" clip-rule="evenodd" d="M0 1.60003V50.3637H20.6182C25.8109 50.3637 29.8909 49.0546 32.8582 46.4364C35.8691 43.8182 37.3745 40.2182 37.3745 35.6364C37.3745 33.8037 37.0473 32.0582 36.3927 30.4C35.7818 28.7418 34.7782 27.2582 33.3818 25.9491C32.683 25.2722 31.8804 24.6553 30.974 24.0986C32.0224 23.2837 32.8686 22.3515 33.5127 21.3018C34.7345 19.3382 35.3454 17.1782 35.3454 14.8218C35.3454 12.1164 34.7564 9.78185 33.5782 7.81821C32.4 5.81094 30.6982 4.28366 28.4727 3.23639C26.2473 2.14548 23.6073 1.60003 20.5527 1.60003H0ZM21.2073 43.4909H7.72363V27.8473H21.2073C23.7818 27.8473 25.8327 28.5673 27.36 30.0073C28.8873 31.4037 29.6509 33.3018 29.6509 35.7018C29.6509 38.0582 28.8873 39.9564 27.36 41.3964C25.8327 42.7927 23.7818 43.4909 21.2073 43.4909ZM20.7491 21.04H7.72363V8.27639H20.7491C22.8436 8.27639 24.5236 8.82185 25.7891 9.91275C27.0545 11.0037 27.6873 12.5309 27.6873 14.4946C27.6873 16.4582 27.0545 18.0509 25.7891 19.2728C24.5236 20.4509 22.8436 21.04 20.7491 21.04ZM44.5996 14.9528V50.3637H51.996V14.9528H44.5996ZM44.5996 1.60003V10.1091H51.996V1.60003H44.5996ZM72.0327 49.4473C74.3018 50.5818 76.8109 51.1491 79.56 51.1491C82.9636 51.1491 85.9963 50.3418 88.6582 48.7273C91.32 47.0691 93.4145 44.8437 94.9418 42.0509C96.5127 39.2582 97.2982 36.1164 97.2982 32.6255C97.2982 29.1346 96.5127 25.9928 94.9418 23.2C93.4145 20.4073 91.2982 18.2037 88.5927 16.5891C85.9309 14.9746 82.92 14.1673 79.56 14.1673C76.7673 14.1673 74.28 14.7346 72.0982 15.8691C70.516 16.6919 69.1632 17.7441 68.04 19.0258V0.814575H60.6436V50.3637H67.7127V45.8387C68.8422 47.352 70.2822 48.5549 72.0327 49.4473ZM84.4036 42.7709C82.7891 43.7746 80.9345 44.2764 78.84 44.2764C76.7891 44.2764 74.9345 43.7746 73.2763 42.7709C71.6618 41.7673 70.3745 40.3927 69.4145 38.6473C68.4982 36.8582 68.04 34.8509 68.04 32.6255C68.04 30.4 68.4982 28.4146 69.4145 26.6691C70.3745 24.9237 71.6618 23.5491 73.2763 22.5455C74.9345 21.5418 76.7891 21.04 78.84 21.04C80.9345 21.04 82.7891 21.5418 84.4036 22.5455C86.0182 23.5491 87.2836 24.9237 88.2 26.6691C89.16 28.4146 89.64 30.4 89.64 32.6255C89.64 34.8509 89.16 36.8582 88.2 38.6473C87.2836 40.3927 86.0182 41.7673 84.4036 42.7709ZM104.493 0.814575V50.3637H111.889V0.814575H104.493ZM127.737 48.7273C130.486 50.3418 133.628 51.1491 137.163 51.1491C139.563 51.1491 141.766 50.7782 143.773 50.0364C145.824 49.2509 147.57 48.2037 149.01 46.8946C150.493 45.5418 151.584 44.0364 152.283 42.3782L146.261 39.4327C145.388 40.96 144.188 42.2037 142.661 43.1637C141.177 44.1237 139.366 44.6037 137.228 44.6037C135.133 44.6037 133.257 44.1018 131.599 43.0982C129.984 42.0946 128.719 40.6982 127.803 38.9091C127.202 37.679 126.86 36.3044 126.776 34.7855H153.133C153.264 34.2618 153.352 33.6946 153.395 33.0837C153.439 32.4727 153.461 31.8837 153.461 31.3164C153.461 29.0037 153.068 26.8218 152.283 24.7709C151.541 22.72 150.45 20.9091 149.01 19.3382C147.57 17.7237 145.803 16.4582 143.708 15.5418C141.613 14.6255 139.235 14.1673 136.573 14.1673C133.257 14.1673 130.29 14.9746 127.672 16.5891C125.053 18.16 122.959 20.32 121.388 23.0691C119.861 25.8182 119.097 28.9818 119.097 32.56C119.097 36.0509 119.861 39.2146 121.388 42.0509C122.915 44.8437 125.032 47.0691 127.737 48.7273ZM126.961 28.8946C127.128 27.8678 127.409 26.9296 127.803 26.08C128.632 24.2473 129.81 22.8509 131.337 21.8909C132.864 20.8873 134.61 20.3855 136.573 20.3855C138.537 20.3855 140.239 20.8873 141.679 21.8909C143.163 22.8509 144.253 24.1818 144.952 25.8837C145.367 26.8121 145.598 27.8157 145.644 28.8946H126.961ZM157.079 1.60003L174.359 50.3637H182.999L200.279 1.60003H191.966L178.71 40.8144L165.392 1.60003H157.079ZM205.296 14.9528V50.3637H212.692V14.9528H205.296ZM205.296 1.60003V10.1091H212.692V1.60003H205.296ZM224.874 48.4655C227.623 50.2546 230.809 51.1491 234.431 51.1491C237.049 51.1491 239.34 50.7127 241.303 49.84C243.267 48.9237 244.794 47.68 245.885 46.1091C247.02 44.4946 247.587 42.64 247.587 40.5455C247.587 38.1018 246.801 36.0073 245.23 34.2618C243.66 32.4727 241.412 31.1637 238.489 30.3346L232.729 28.6327C231.987 28.4146 231.267 28.1528 230.569 27.8473C229.871 27.4982 229.303 27.0618 228.867 26.5382C228.431 25.9709 228.212 25.2728 228.212 24.4437C228.212 23.2218 228.692 22.24 229.652 21.4982C230.612 20.7128 231.9 20.32 233.514 20.32C235.391 20.32 237.071 20.8218 238.554 21.8255C240.081 22.8291 241.194 24.1818 241.892 25.8837L247.587 23.2C246.54 20.3637 244.751 18.16 242.22 16.5891C239.689 14.9746 236.809 14.1673 233.58 14.1673C231.18 14.1673 229.02 14.6037 227.1 15.4764C225.18 16.3491 223.674 17.5928 222.583 19.2073C221.492 20.7782 220.947 22.6328 220.947 24.7709C220.947 27.1273 221.689 29.2 223.172 30.9891C224.7 32.7346 226.991 34.0437 230.045 34.9164L235.609 36.4873C236.351 36.6618 237.071 36.9237 237.769 37.2728C238.511 37.6218 239.121 38.08 239.601 38.6473C240.081 39.1709 240.321 39.8691 240.321 40.7418C240.321 42.0946 239.776 43.1637 238.685 43.9491C237.594 44.7346 236.176 45.1273 234.431 45.1273C232.38 45.1273 230.503 44.5382 228.801 43.36C227.143 42.1818 225.834 40.5891 224.874 38.5818L219.18 41.2655C220.271 44.2764 222.169 46.6764 224.874 48.4655ZM321.08 43.4752L270.427 30.6348L320.186 30.6348V23.3621L270.428 23.3621L321.081 10.525L319.294 3.47511L262.93 17.7597L260.187 18.4549V21.2846V26.9985V32.7123V35.5419L262.93 36.2372L319.293 50.5249L321.08 43.4752Z" fill="url(#paint0_linear_5_99)"/>
<defs>
<linearGradient id="paint0_linear_5_99" x1="1.36286e-05" y1="30.6968" x2="11.8035" y2="-54.684" gradientUnits="userSpaceOnUse">
<stop stop-color="#2D2D2E"/>
<stop offset="1" stop-color="#2D2D2E"/>
</linearGradient>
</defs>
</svg>
