<svg width="24" height="24" viewBox="0 0 24 24" fill="none" xmlns="http://www.w3.org/2000/svg">
<path d="M16.3028 4.30325C16.5242 4.07402 16.789 3.89119 17.0818 3.7654C17.3746 3.63962 17.6896 3.57342 18.0082 3.57065C18.3269 3.56788 18.6429 3.6286 18.9379 3.74928C19.2329 3.86995 19.5008 4.04816 19.7262 4.2735C19.9515 4.49884 20.1297 4.76681 20.2504 5.06176C20.3711 5.35671 20.4318 5.67274 20.429 5.99141C20.4262 6.31008 20.36 6.62501 20.2343 6.91782C20.1085 7.21063 19.9256 7.47546 19.6964 7.69685L18.7448 8.64845L15.3512 5.25485L16.3028 4.30325ZM13.6544 6.95165L3.59961 17.0064V20.4H6.99321L17.0492 10.3452L13.6544 6.95165Z" fill="#242424"/>
</svg>
