<svg width="18" height="18" viewBox="0 0 18 18" fill="none" xmlns="http://www.w3.org/2000/svg">
<path d="M13.3028 1.30325C13.5242 1.07402 13.789 0.891186 14.0818 0.765405C14.3746 0.639623 14.6896 0.573416 15.0082 0.570647C15.3269 0.567878 15.6429 0.628602 15.9379 0.749276C16.2329 0.869951 16.5008 1.04816 16.7262 1.2735C16.9515 1.49884 17.1297 1.76681 17.2504 2.06176C17.3711 2.35671 17.4318 2.67274 17.429 2.99141C17.4262 3.31008 17.36 3.62501 17.2343 3.91782C17.1085 4.21063 16.9256 4.47546 16.6964 4.69685L15.7448 5.64845L12.3512 2.25485L13.3028 1.30325ZM10.6544 3.95165L0.599609 14.0064V17.4H3.99321L14.0492 7.34525L10.6544 3.95165Z" fill="#242424"/>
</svg>
