<svg width="21" height="20" viewBox="0 0 21 20" fill="none" xmlns="http://www.w3.org/2000/svg">
<path fill-rule="evenodd" clip-rule="evenodd" d="M14.7093 0.422466C15.6582 -0.0520812 16.7568 -0.130236 17.7633 0.205194C18.7699 0.540624 19.6019 1.26216 20.0765 2.21108C20.3115 2.68093 20.4516 3.19247 20.4889 3.71648C20.5262 4.24049 20.4599 4.76671 20.2938 5.2651C20.1277 5.76349 19.8651 6.22428 19.5209 6.62117C19.1767 7.01807 18.7577 7.34328 18.2879 7.57825C17.818 7.81323 17.3065 7.95335 16.7825 7.99063C16.2585 8.02791 15.7322 7.96161 15.2339 7.79552C14.7355 7.62944 14.2747 7.36681 13.8778 7.02264C13.7363 6.89996 13.604 6.76778 13.4815 6.62718L8.41092 9.16249C8.46868 9.43306 8.4991 9.71346 8.4991 10.0004C8.4991 10.2873 8.46868 10.5677 8.41092 10.8382L13.4815 13.3735C13.9468 12.8389 14.5501 12.4328 15.2339 12.2049C15.7324 12.0387 16.2586 11.9724 16.7827 12.0096C17.3068 12.0469 17.8184 12.187 18.2883 12.4219C19.2374 12.8965 19.9591 13.7286 20.2946 14.7352C20.6301 15.7418 20.5521 16.8405 20.0775 17.7896C19.603 18.7386 18.7709 19.4603 17.7643 19.7959C16.7576 20.1314 15.6589 20.0533 14.7099 19.5788C13.7608 19.1043 13.0391 18.2722 12.7036 17.2655C12.4757 16.5817 12.4386 15.8554 12.587 15.1624L7.51662 12.6272C7.15272 13.045 6.70349 13.3856 6.19493 13.6235C5.37879 14.0053 4.45764 14.1004 3.58073 13.8933C2.70381 13.6862 1.9225 13.1891 1.36335 12.4826C0.804213 11.776 0.5 10.9014 0.5 10.0004C0.5 9.09933 0.804213 8.22469 1.36335 7.51813C1.9225 6.81158 2.70381 6.3145 3.58073 6.10743C4.45764 5.90035 5.37879 5.99541 6.19493 6.37721C6.70349 6.61512 7.15272 6.95568 7.51662 7.37357L12.587 4.83838C12.4386 4.14549 12.4756 3.41933 12.7034 2.73562C13.0389 1.72908 13.7604 0.897013 14.7093 0.422466ZM6.28873 10.895C6.42307 10.6263 6.4991 10.3231 6.4991 10.0004C6.4991 9.67763 6.42307 9.37441 6.28873 9.10569M6.28867 10.8951C6.08714 11.298 5.7555 11.6211 5.34746 11.8119C4.93939 12.0028 4.47882 12.0504 4.04036 11.9468C3.60191 11.8433 3.21125 11.5948 2.93168 11.2415C2.65211 10.8882 2.5 10.4509 2.5 10.0004C2.5 9.54984 2.65211 9.11252 2.93168 8.75925C3.21125 8.40597 3.60191 8.15743 4.04036 8.05389C4.47882 7.95036 4.93939 7.99789 5.34746 8.18878C5.7555 8.37966 6.08714 8.7027 6.28867 9.10557M17.131 2.10261C16.6277 1.93488 16.0784 1.97396 15.6039 2.21125C15.1294 2.44855 14.7686 2.86462 14.6009 3.36793C14.4331 3.87125 14.4722 4.42058 14.7095 4.89508C14.827 5.13003 14.9896 5.33953 15.1881 5.51163C15.3865 5.68373 15.617 5.81506 15.8662 5.89811C16.1154 5.98116 16.3785 6.01431 16.6406 5.99567C16.9026 5.97703 17.1584 5.90696 17.3933 5.78947C17.6283 5.67197 17.8378 5.50935 18.0099 5.31088C18.182 5.11242 18.3133 4.882 18.3964 4.63279C18.4794 4.38357 18.5126 4.12044 18.4939 3.85841C18.4753 3.59638 18.4052 3.34059 18.2877 3.10564C18.0504 2.63114 17.6343 2.27034 17.131 2.10261ZM16.6409 14.0046C16.3788 13.986 16.1157 14.0191 15.8664 14.1022C15.363 14.27 14.9468 14.6309 14.7095 15.1056C14.4722 15.5802 14.4332 16.1297 14.601 16.6331C14.7688 17.1365 15.1297 17.5526 15.6043 17.7899C16.0789 18.0272 16.6284 18.0663 17.1318 17.8985C17.6352 17.7307 18.0514 17.3698 18.2887 16.8951C18.526 16.4205 18.565 15.8711 18.3972 15.3677C18.2294 14.8642 17.8685 14.4481 17.3939 14.2108C17.1589 14.0933 16.903 14.0232 16.6409 14.0046Z" fill="#2D2D2E"/>
</svg>
