<svg width="20" height="21" viewBox="0 0 20 21" fill="none" xmlns="http://www.w3.org/2000/svg">
<path fill-rule="evenodd" clip-rule="evenodd" d="M7 2.50122C6.20435 2.50122 5.44129 2.81729 4.87868 3.3799C4.31607 3.94251 4 4.70557 4 5.50122C4 6.29687 4.31607 7.05993 4.87868 7.62254C5.44129 8.18515 6.20435 8.50122 7 8.50122C7.79565 8.50122 8.55871 8.18515 9.12132 7.62254C9.68393 7.05993 10 6.29687 10 5.50122C10 4.70557 9.68393 3.94251 9.12132 3.3799C8.55871 2.81729 7.79565 2.50122 7 2.50122ZM3.46447 1.96569C4.40215 1.028 5.67392 0.501221 7 0.501221C8.32608 0.501221 9.59785 1.028 10.5355 1.96569C11.4732 2.90337 12 4.17514 12 5.50122C12 6.8273 11.4732 8.09907 10.5355 9.03675C9.59785 9.97444 8.32608 10.5012 7 10.5012C5.67392 10.5012 4.40215 9.97444 3.46447 9.03675C2.52678 8.09907 2 6.8273 2 5.50122C2 4.17514 2.52678 2.90337 3.46447 1.96569ZM12 10.5012C12 9.94894 12.4477 9.50122 13 9.50122H19C19.5523 9.50122 20 9.94894 20 10.5012C20 11.0535 19.5523 11.5012 19 11.5012H13C12.4477 11.5012 12 11.0535 12 10.5012ZM2.05025 13.5515C3.36301 12.2387 5.14348 11.5012 7 11.5012C8.85652 11.5012 10.637 12.2387 11.9497 13.5515C13.2625 14.8642 14 16.6447 14 18.5012V19.5012C14 20.0535 13.5523 20.5012 13 20.5012H1C0.447715 20.5012 0 20.0535 0 19.5012V18.5012C0 16.6447 0.737498 14.8642 2.05025 13.5515ZM7 13.5012C5.67392 13.5012 4.40215 14.028 3.46447 14.9657C2.52678 15.9034 2 17.1751 2 18.5012H12C12 17.1751 11.4732 15.9034 10.5355 14.9657C9.59785 14.028 8.32608 13.5012 7 13.5012Z" fill="#242424"/>
</svg>
