<svg width="27" height="27" viewBox="0 0 27 27" fill="none" xmlns="http://www.w3.org/2000/svg">
<path d="M21.0087 9.78637C20.8324 9.12364 20.311 8.60083 19.6475 8.42164C18.4478 8.1001 13.6345 8.1001 13.6345 8.1001C13.6345 8.1001 8.82355 8.1001 7.62143 8.42164C6.96039 8.59837 6.43891 9.12119 6.26018 9.78637C5.93945 10.9891 5.93945 13.5001 5.93945 13.5001C5.93945 13.5001 5.93945 16.0111 6.26018 17.2138C6.43646 17.8766 6.95795 18.3994 7.62143 18.5786C8.82355 18.9001 13.6345 18.9001 13.6345 18.9001C13.6345 18.9001 18.4478 18.9001 19.6475 18.5786C20.3085 18.4018 20.83 17.879 21.0087 17.2138C21.3295 16.0111 21.3295 13.5001 21.3295 13.5001C21.3295 13.5001 21.3295 10.9891 21.0087 9.78637Z" fill="black"/>
<path d="M12.0969 15.8147L16.095 13.5001L12.0969 11.1855V15.8147Z" fill="white"/>
</svg>
